<svg width="790" height="607" viewBox="0 0 790 607" fill="none" xmlns="http://www.w3.org/2000/svg">
<path d="M398.325 20.4221C390.591 43.8888 390.591 45.7554 397.658 52.4221C401.391 55.8888 402.058 61.6221 398.591 61.6221C397.391 61.6221 393.925 64.2888 390.858 67.4888L385.258 73.2221L370.458 74.8221C347.125 77.2221 331.391 82.4221 290.591 101.089C260.725 114.689 252.858 116.422 252.858 109.622C252.858 105.755 246.991 100.289 242.991 100.289C237.658 100.289 232.325 105.755 232.325 111.355C232.325 113.889 233.258 117.089 234.191 118.422C236.858 121.489 245.925 125.622 250.458 125.622C252.458 125.622 254.325 126.022 254.591 126.555C254.991 127.222 251.791 136.955 247.525 148.289C243.391 159.622 234.991 182.155 228.991 198.289C218.325 226.955 200.858 274.822 200.858 275.622C200.858 275.755 202.458 275.622 204.325 275.222C206.458 274.822 208.191 273.222 209.125 271.089C211.391 265.089 234.858 200.955 245.125 172.289L254.858 144.955L255.791 212.289C256.458 249.355 256.591 280.289 256.325 281.089C255.925 282.155 245.658 282.822 224.325 283.222C206.991 283.622 192.458 284.155 192.058 284.555C190.458 286.155 195.791 293.622 203.125 300.289C207.391 304.022 215.125 309.089 220.191 311.622C235.525 318.955 244.458 320.822 264.858 320.689C280.591 320.689 284.191 320.289 293.525 317.222C306.325 312.955 318.058 306.155 326.191 298.155C331.658 292.955 337.658 284.689 336.591 284.022C336.325 283.889 319.791 283.489 299.658 283.089L263.125 282.289L262.725 274.289C261.525 250.422 260.991 145.222 262.058 146.289C262.725 147.089 267.525 159.355 272.591 173.622C277.791 187.889 288.058 216.022 295.391 236.155C302.858 256.289 308.858 272.955 308.858 273.222C308.858 273.489 310.325 273.622 312.058 273.622H315.391L312.858 267.222C306.858 252.555 263.258 132.955 262.591 129.489C262.058 126.555 262.325 125.622 263.925 125.622C264.991 125.622 278.058 121.755 292.991 116.955C325.258 106.555 347.658 101.755 368.858 100.689L384.325 99.8888L386.725 106.155C393.391 123.622 420.325 122.689 426.325 104.689L427.791 100.289H437.391C459.391 100.289 483.391 105.089 519.525 116.955C531.658 120.822 543.925 124.422 546.725 124.955C550.458 125.755 551.525 126.555 551.125 128.155C550.725 129.355 542.858 150.955 533.525 176.289C524.191 201.622 513.791 230.422 510.191 240.289C506.725 250.155 502.458 261.489 500.991 265.355C497.525 274.022 497.525 273.622 501.258 273.622C503.925 273.622 505.391 270.422 516.058 240.555C522.458 222.422 532.991 193.222 539.391 175.755L550.858 143.889L551.258 211.755C551.391 249.089 551.258 280.422 550.858 281.222C550.458 282.555 542.725 282.955 518.458 282.955C486.858 282.955 478.191 283.622 478.191 285.755C478.191 286.422 482.191 291.089 486.991 296.289C505.925 316.289 537.125 325.222 568.725 319.755C584.991 316.955 600.191 309.889 610.591 300.422C619.125 292.555 624.325 285.889 622.991 284.555C622.458 284.155 607.525 283.355 589.925 282.955L557.658 282.289L557.125 213.889C556.725 176.422 556.858 145.622 557.258 145.622C557.525 145.622 560.191 151.755 562.858 159.222C572.725 186.155 598.458 255.755 602.325 265.889C605.791 274.955 606.858 276.289 609.658 276.289C611.391 276.289 612.858 276.022 612.858 275.622C612.858 274.689 584.591 198.822 569.791 159.889L557.258 126.955L560.725 126.155C567.791 124.689 575.258 121.489 577.658 118.822C581.391 114.689 580.858 107.222 576.325 103.489C569.925 97.8888 561.925 100.422 559.791 108.689C559.125 111.489 557.791 113.089 556.058 113.355C552.325 113.889 536.458 107.755 512.858 96.9554C482.325 82.8221 460.325 76.1554 437.525 74.1554C427.525 73.3554 426.591 72.9554 422.991 68.5554C420.858 66.0221 417.125 63.0888 414.591 62.1554C412.191 61.0888 410.191 59.7554 410.191 59.2221C410.191 58.5554 412.325 55.0888 414.858 51.4888C417.391 47.8888 419.525 43.8888 419.525 42.4221C419.525 39.6221 407.658 1.48875 406.325 0.022082C405.791 -0.511251 402.191 8.68875 398.325 20.4221Z" fill="#14365C"/>
<path d="M692.592 130.556C689.658 137.756 663.525 202.156 663.525 202.156C663.525 202.289 670.725 202.289 679.392 202.289H695.258L706.058 173.756C712.058 158.022 717.125 144.822 717.525 144.556C718.592 143.356 724.858 145.756 724.858 147.356C724.858 148.156 720.058 161.489 714.325 176.689C705.258 200.556 704.058 204.556 705.925 205.222C719.525 209.622 732.592 218.022 741.525 227.889L746.992 233.889L751.392 220.022C765.125 176.422 768.858 162.689 767.392 160.689C764.725 157.622 744.858 144.956 734.458 139.756C725.658 135.222 699.125 125.622 695.925 125.622C695.125 125.622 693.658 127.889 692.592 130.556Z" fill="#14365C"/>
<path d="M391.391 155.622C391.391 170.956 390.858 209.756 390.325 241.622L389.258 299.622L392.725 302.556L396.191 305.356L390.591 310.156C381.658 318.022 380.191 327.622 387.125 335.222C388.458 336.689 388.858 338.156 388.058 338.822C386.991 339.889 374.058 344.689 342.591 355.889C337.258 357.756 336.858 358.156 336.858 362.956C336.858 368.556 335.125 369.622 325.925 369.622C320.858 369.622 320.858 369.622 320.858 364.289V358.822L314.591 359.489C310.991 359.889 298.591 360.556 286.858 360.956C231.658 362.956 158.991 370.556 95.6581 380.956C64.3247 386.156 -6.34192 402.422 0.458077 402.822C1.39141 402.956 11.6581 401.756 23.1247 400.289C82.1914 392.956 162.858 387.089 249.525 384.156C336.325 381.222 541.258 382.422 610.725 386.422L626.591 387.356L625.658 378.822C625.125 374.156 624.458 370.156 624.325 370.022C622.991 368.556 550.858 362.289 522.191 360.956C512.325 360.556 501.391 359.889 497.925 359.489L491.525 358.822V364.422V370.022L483.258 369.089C465.525 367.356 402.191 361.756 390.191 360.822C362.991 358.956 375.391 357.756 423.525 357.622L473.525 357.489L464.858 354.156C460.058 352.289 450.458 348.822 443.525 346.289C436.591 343.889 429.125 341.222 427.125 340.422L423.258 338.956L425.791 334.556C431.525 324.956 430.458 317.889 421.925 310.156L416.458 305.222L419.525 302.689L422.591 300.156L421.791 234.556C421.258 198.422 420.458 159.622 420.058 148.289L419.125 127.622H405.391L391.525 127.489L391.391 155.622Z" fill="#14365C"/>
<path d="M48.1916 144.555C48.7249 146.289 50.5916 148.955 52.3249 150.555L55.6583 153.622H135.658H215.525V147.622V141.622H131.392H47.3916L48.1916 144.555Z" fill="#14365C"/>
<path d="M46.1914 162.822C29.6581 167.889 17.9247 185.489 20.0581 202.022C21.2581 210.822 24.9914 217.622 31.5247 223.356C48.9914 238.156 76.7247 229.222 79.1247 207.889C80.8581 192.422 65.5247 179.756 52.9914 186.289C49.2581 188.156 47.5247 190.689 47.5247 194.289C47.5247 195.622 48.7247 195.889 52.0581 195.356C60.4581 194.022 65.5247 204.022 59.9247 210.822C56.9914 214.289 49.5247 215.756 44.5914 213.756C37.1247 210.956 33.3914 199.356 36.9914 190.022C40.1914 181.489 50.1914 174.956 60.0581 174.956C67.9247 174.956 71.5247 176.422 78.1914 182.422C84.5914 188.289 87.3914 192.956 88.5914 200.689L89.6581 206.289L106.191 206.156C115.391 206.156 139.791 206.022 160.458 205.889L198.058 205.622L200.191 201.622C201.258 199.489 202.191 195.889 202.191 193.756V189.756L156.591 189.356C118.991 189.089 110.191 188.556 106.858 186.956C101.925 184.422 100.991 180.956 105.125 179.756C106.858 179.356 132.325 178.956 161.925 178.956H215.525V170.289V161.622L132.591 161.756C86.8581 161.756 48.0581 162.289 46.1914 162.822Z" fill="#14365C"/>
<path d="M663.925 212.289C659.925 214.022 660.058 214.956 665.258 219.889C668.725 223.356 671.258 224.422 678.858 225.622C692.192 227.756 704.458 232.289 714.592 239.089C719.525 242.156 723.258 244.956 723.125 245.089C722.992 245.222 716.592 243.222 708.992 240.822C701.392 238.289 694.992 236.422 694.858 236.556C694.725 236.822 685.925 254.689 675.258 276.289C664.592 297.889 654.858 316.822 653.658 318.289C651.525 320.822 651.525 320.822 652.325 316.956C653.258 313.089 661.658 291.889 677.392 253.356C681.525 243.356 684.858 234.822 684.858 234.422C684.858 234.156 683.125 233.489 680.858 233.089C667.658 230.556 669.792 229.222 661.658 245.222C652.458 263.089 642.058 281.356 632.458 296.689L625.125 308.289L627.658 316.556C630.858 326.689 636.058 357.222 638.192 377.622C641.525 409.622 641.392 408.956 643.792 409.356C645.125 409.622 647.525 407.489 650.325 403.489C665.925 380.689 704.192 337.889 718.058 327.622L723.525 323.622V305.622C723.525 295.756 724.458 279.222 725.525 268.956C726.592 258.689 727.525 249.889 727.525 249.356C727.525 248.956 730.458 248.156 734.058 247.622C737.658 247.089 740.992 245.889 741.392 244.956C743.792 238.689 721.925 221.889 703.525 215.756C691.258 211.622 669.658 209.756 663.925 212.289ZM682.325 300.422C686.325 304.422 685.258 310.822 680.192 314.289C676.458 316.689 674.858 320.422 663.792 353.222C651.525 389.356 646.592 402.422 645.658 401.489C644.458 400.289 656.192 358.156 665.658 329.489C669.925 316.422 670.192 315.089 668.325 310.822C667.125 308.022 666.858 305.222 667.525 303.356C669.792 297.489 677.658 295.756 682.325 300.422Z" fill="#14365C"/>
<path d="M94.0581 217.356C88.5914 217.756 87.5247 218.289 86.1914 221.622C84.3247 226.022 74.5914 235.622 69.5247 237.889L66.1914 239.356V307.222C66.1914 353.756 66.5914 374.956 67.6581 374.956C68.3247 374.956 73.1247 374.022 78.1914 372.822L87.5247 370.689L87.7914 303.356C88.1914 240.822 88.3247 235.756 90.5914 234.422C92.1914 233.356 93.5247 233.356 95.2581 234.422C97.3914 235.756 97.5247 240.689 97.9247 302.156C98.0581 338.556 98.7247 368.289 99.2581 368.289C99.7914 368.156 103.791 367.489 108.191 366.556L116.191 364.822L116.858 300.956C117.258 265.756 118.058 236.156 118.591 235.222C119.258 234.422 121.125 233.622 122.725 233.622C129.525 233.622 129.525 233.489 129.925 300.022L130.325 361.889L136.991 361.089C140.591 360.556 144.458 359.889 145.525 359.489C147.258 358.822 147.525 350.556 147.525 298.689C147.525 259.889 148.058 237.889 148.858 236.156C149.791 234.556 151.658 233.622 154.191 233.622C156.725 233.622 158.591 234.556 159.525 236.156C160.325 237.889 160.858 259.622 160.858 297.489C160.858 352.556 160.991 356.289 163.258 356.289C166.991 356.289 192.058 351.889 192.991 351.089C193.525 350.689 193.391 341.222 192.858 330.022L191.658 309.756L186.191 302.689C181.258 296.556 174.191 283.222 174.191 280.289C174.191 279.756 177.791 277.089 182.191 274.422L190.058 269.489L189.391 244.556C188.991 230.822 188.458 218.822 188.058 217.889C187.658 216.556 178.458 216.289 143.925 216.556C119.791 216.822 97.3914 217.089 94.0581 217.356Z" fill="#14365C"/>
<path d="M681.658 384.556L676.991 390.289L684.591 391.222C688.725 391.756 702.458 393.089 714.858 394.289C733.791 396.022 759.658 398.956 785.525 402.289C802.325 404.422 755.391 392.289 719.525 385.222C682.991 377.889 687.258 378.022 681.658 384.556Z" fill="#14365C"/>
<path d="M210.191 421.889C197.925 423.622 178.991 430.156 168.591 436.422C163.658 439.356 155.391 445.756 150.325 450.822C120.058 480.689 116.191 535.489 142.058 569.622C166.725 602.289 217.391 614.956 270.725 601.489C276.458 600.022 284.991 597.222 289.658 595.356L298.191 592.022V563.622C298.191 531.889 298.458 530.822 307.525 528.556C311.658 527.622 312.191 526.956 312.591 522.556L312.991 517.622H271.658H230.191V522.956V528.289L236.591 528.422C245.525 528.556 252.858 531.089 255.791 535.089C258.058 538.022 258.458 541.622 259.125 563.222L259.925 588.022L256.191 590.422C250.058 594.422 228.725 594.689 217.125 591.089C205.658 587.356 192.058 577.222 184.858 567.356C179.125 559.222 172.725 544.156 170.058 531.622C167.391 519.622 167.791 489.622 170.725 478.956C175.925 459.756 186.591 445.622 200.858 438.289C214.325 431.489 235.391 430.556 250.458 436.289C263.258 441.089 277.391 456.022 282.325 469.889C283.925 474.689 284.325 474.956 289.791 474.956H295.525V458.422C295.525 449.356 295.125 439.222 294.725 435.889L293.791 429.756L279.658 426.422C255.258 420.556 230.458 418.956 210.191 421.889Z" fill="#14365C"/>
<path d="M538.991 454.689C532.458 472.022 522.191 499.489 516.058 515.622C510.058 531.756 502.325 552.289 498.991 561.222C495.658 570.289 492.058 579.222 490.991 581.222C487.525 587.889 481.391 592.556 473.925 594.156C467.391 595.756 466.858 596.156 466.458 600.022L466.058 604.289H500.058H534.191V599.622C534.191 595.089 534.058 594.956 529.258 594.956C521.791 594.956 514.458 592.556 512.858 589.622C510.458 585.089 511.391 579.089 517.525 560.289C523.525 542.156 523.791 541.756 527.925 540.956C530.325 540.556 544.458 540.289 559.525 540.556L586.858 540.956L595.125 561.622C599.658 572.956 603.391 583.356 603.525 584.556C603.525 585.756 602.191 588.422 600.458 590.422C598.058 593.222 595.791 594.022 589.525 594.822C581.658 595.622 581.525 595.756 581.125 599.889L580.725 604.289H625.391H670.191V599.622C670.191 595.222 669.925 594.956 665.925 594.956C663.525 594.956 658.991 593.756 655.925 592.422C651.525 590.422 649.525 588.289 646.858 582.822C643.791 576.956 596.858 459.222 586.591 431.889L583.258 422.956H566.991H550.858L538.991 454.689ZM568.325 492.556L581.658 526.289L568.591 526.689C561.391 526.822 549.525 526.822 542.325 526.689L529.125 526.289L534.725 510.956C537.791 502.556 543.258 487.356 546.725 477.222C550.325 467.222 553.658 458.956 554.191 458.956C554.725 458.956 561.125 474.156 568.325 492.556Z" fill="#14365C"/>
<path d="M376.458 456.822C368.592 459.756 361.258 465.089 357.258 471.222C354.325 475.622 353.525 478.556 353.125 486.156C352.592 494.956 352.992 496.289 357.525 504.956C360.192 510.022 361.792 514.422 361.125 514.689C360.458 514.822 356.325 517.222 352.058 519.756C338.192 528.022 332.458 535.222 330.192 546.822C326.325 567.356 339.392 584.422 362.725 589.089C380.192 592.689 396.458 588.422 411.525 576.022L418.858 570.156L422.858 573.889C428.992 579.622 438.192 585.222 444.725 586.956C449.525 588.156 451.658 588.156 457.392 586.289C467.125 583.089 475.525 578.022 475.525 575.089C475.525 573.089 474.325 572.689 467.925 572.689C459.392 572.689 454.192 570.556 444.858 563.222C433.125 553.889 432.992 556.156 446.325 537.489C458.458 520.422 463.125 516.022 471.925 513.356C475.925 512.156 476.858 511.222 476.592 509.089C476.192 506.422 475.392 506.289 452.058 505.889L427.792 505.622L427.258 508.956C426.592 511.889 427.125 512.422 431.525 513.622C440.458 516.022 441.392 526.156 433.792 538.956C427.392 549.889 428.858 550.422 409.258 530.156C399.525 520.156 391.525 511.489 391.525 510.956C391.525 510.289 393.258 509.222 395.525 508.556C406.592 504.689 418.458 492.689 420.058 483.622C422.192 472.689 413.792 459.489 402.858 456.422C395.658 454.422 382.592 454.689 376.458 456.822ZM393.925 466.956C401.392 471.489 404.458 483.889 400.325 492.156C397.925 496.689 389.525 504.289 386.725 504.289C384.325 504.289 374.725 489.622 373.525 484.156C372.058 477.622 373.925 471.489 378.325 467.756C383.258 463.622 388.058 463.356 393.925 466.956ZM389.258 542.289C401.525 554.422 411.258 564.956 410.858 565.622C410.325 566.422 406.858 568.556 403.125 570.556C390.058 577.222 373.525 574.422 363.125 563.622C356.458 556.689 353.658 548.956 354.458 538.956C354.992 531.756 355.525 530.289 360.192 525.622C363.125 522.689 365.792 520.289 366.192 520.289C366.592 520.289 376.992 530.156 389.258 542.289Z" fill="#14365C"/>
</svg>
